<svg width="15" height="10" viewBox="0 0 15 10" fill="none" xmlns="http://www.w3.org/2000/svg">
<path fill-rule="evenodd" clip-rule="evenodd" d="M1.22039 1.26314C1.51232 0.969289 1.98719 0.967736 2.28104 1.25967L7.76858 6.71141L13.2203 1.22388C13.5123 0.930026 13.9871 0.928473 14.281 1.22041C14.5748 1.51234 14.5764 1.98721 14.2844 2.28106L8.30411 8.30066C8.01218 8.59451 7.53731 8.59606 7.24346 8.30413L1.22386 2.32379C0.930008 2.03186 0.928454 1.55699 1.22039 1.26314Z" fill="white"/>
<path fill-rule="evenodd" clip-rule="evenodd" d="M1.22039 1.26314C1.51232 0.969289 1.98719 0.967736 2.28104 1.25967L7.76858 6.71141L13.2203 1.22388C13.5123 0.930026 13.9871 0.928473 14.281 1.22041C14.5748 1.51234 14.5764 1.98721 14.2844 2.28106L8.30411 8.30066C8.01218 8.59451 7.53731 8.59606 7.24346 8.30413L1.22386 2.32379C0.930008 2.03186 0.928454 1.55699 1.22039 1.26314Z" stroke="black" stroke-linecap="round" stroke-linejoin="round"/>
<path fill-rule="evenodd" clip-rule="evenodd" d="M1.22039 1.26314C1.51232 0.969289 1.98719 0.967736 2.28104 1.25967L7.76858 6.71141L13.2203 1.22388C13.5123 0.930026 13.9871 0.928473 14.281 1.22041C14.5748 1.51234 14.5764 1.98721 14.2844 2.28106L8.30411 8.30066C8.01218 8.59451 7.53731 8.59606 7.24346 8.30413L1.22386 2.32379C0.930008 2.03186 0.928454 1.55699 1.22039 1.26314Z" stroke="black" stroke-opacity="0.2" stroke-linecap="round" stroke-linejoin="round"/>
</svg>
