<svg width="263" height="811" viewBox="0 0 263 811" fill="none" xmlns="http://www.w3.org/2000/svg">
<g style="mix-blend-mode:screen" filter="url(#filter0_f_1463_6201)">
<path style="mix-blend-mode:screen" d="M141.315 258.281C145.984 186.535 109.623 127.525 60.1051 126.477L-171.223 121.592C-220.742 120.544 -264.669 177.861 -269.337 249.607L-289.105 553.472C-293.773 625.218 -257.413 684.229 -207.894 685.275L23.434 690.16C72.9548 691.206 116.878 633.893 121.548 562.141L141.315 258.281Z" fill="url(#paint0_radial_1463_6201)"/>
<path style="mix-blend-mode:screen" d="M141.315 258.281C145.984 186.535 109.623 127.525 60.1051 126.477L-171.223 121.592C-220.742 120.544 -264.669 177.861 -269.337 249.607L-289.105 553.472C-293.773 625.218 -257.413 684.229 -207.894 685.275L23.434 690.16C72.9548 691.206 116.878 633.893 121.548 562.141L141.315 258.281Z" fill="url(#paint1_radial_1463_6201)"/>
</g>
<defs>
<filter id="filter0_f_1463_6201" x="-410.154" y="0.931877" width="672.519" height="809.888" filterUnits="userSpaceOnUse" color-interpolation-filters="sRGB">
<feFlood flood-opacity="0" result="BackgroundImageFix"/>
<feBlend mode="normal" in="SourceGraphic" in2="BackgroundImageFix" result="shape"/>
<feGaussianBlur stdDeviation="60.323" result="effect1_foregroundBlur_1463_6201"/>
</filter>
<radialGradient id="paint0_radial_1463_6201" cx="0" cy="0" r="1" gradientUnits="userSpaceOnUse" gradientTransform="translate(-131.4 278.497) rotate(54.6203) scale(221.713 225.947)">
<stop stop-color="#F234A3"/>
<stop offset="0.0001"/>
<stop offset="0.778467" stop-color="#6343FF"/>
<stop offset="1" stop-color="#FF2CDF" stop-opacity="0.19"/>
</radialGradient>
<radialGradient id="paint1_radial_1463_6201" cx="0" cy="0" r="1" gradientUnits="userSpaceOnUse" gradientTransform="translate(-131.4 278.497) rotate(54.6203) scale(221.713 225.947)">
<stop stop-color="#F234A3"/>
<stop offset="0.0001"/>
<stop offset="0.778467" stop-color="#6343FF"/>
<stop offset="1" stop-color="#FF2CDF" stop-opacity="0.19"/>
</radialGradient>
</defs>
</svg>
