<svg width="16" height="20" viewBox="0 0 16 20" fill="none" xmlns="http://www.w3.org/2000/svg">
<path fill-rule="evenodd" clip-rule="evenodd" d="M14.8318 10.4636C14.5483 9.5023 14.0776 8.62059 13.4328 7.84536L12.9042 7.21052C12.8256 7.11968 12.6805 7.1355 12.6265 7.24184L12.256 7.9765C12.0247 8.43744 11.6515 8.88942 11.1512 9.31556C11.1183 9.34264 11.0842 9.34635 11.061 9.34526C11.038 9.3442 11.0035 9.33518 10.9762 9.30202C10.9507 9.27325 10.9411 9.23396 10.948 9.19709C11.1889 7.96239 11.0021 6.50685 10.3894 4.86644C9.88326 3.50388 9.07769 2.38454 7.99902 1.53293L7.2117 0.913004C7.10878 0.831449 6.9547 0.898762 6.94363 1.02992L6.85813 2.02896C6.79963 2.7116 6.64195 3.30073 6.39019 3.77351C6.08227 4.35254 5.68092 4.87439 5.19633 5.32575C4.8559 5.64128 4.48489 5.9167 4.08879 6.14447C3.13044 6.69295 2.29842 7.46517 1.68409 8.37272C1.06442 9.28988 0.660589 10.3568 0.514772 11.4613C0.386023 12.4376 0.453473 13.4093 0.716141 14.3529C0.970804 15.2618 1.39379 16.1076 1.974 16.8612C2.55629 17.6151 3.26469 18.2431 4.08288 18.724C4.93036 19.2238 5.85594 19.5446 6.83767 19.6796C7.81941 19.8145 8.79532 19.7549 9.74179 19.5038C10.6556 19.2608 11.5032 18.8488 12.2584 18.2766C13.0154 17.7066 13.6425 17.0053 14.1216 16.1971C14.6195 15.358 14.9365 14.4391 15.0653 13.4628C15.1985 12.4535 15.1211 11.4447 14.8318 10.4636Z" fill="url(#paint0_linear_1463_6211)"/>
<defs>
<linearGradient id="paint0_linear_1463_6211" x1="12.8844" y1="7.11518" x2="1.28653" y2="15.9598" gradientUnits="userSpaceOnUse">
<stop stop-color="#F234A3"/>
<stop offset="1" stop-color="#4852FD"/>
</linearGradient>
</defs>
</svg>
